<?xml version="1.0" encoding="UTF-8"?>
<svg id="Capa_1" xmlns="http://www.w3.org/2000/svg" version="1.1" viewBox="0 0 476.93 246.32">
  <!-- Generator: Adobe Illustrator 30.0.0, SVG Export Plug-In . SVG Version: 2.1.1 Build 123)  -->
  <defs>
    <style>
      .st0 {
        fill: #53284f;
      }
    </style>
  </defs>
  <path class="st0" d="M411.93,242.68c-.48-.5-3.38-3.03-13.31-3.89-5.04-.44-8.64-.36-10.71.22-1.96-1.21-6.21-3.63-10.79-5.02-5.48-1.66-17.01-1.85-19.82-1.87l-16.9-8.05-9.09-6.3-6.58-1.16-14.52-6.92-19.24,5.3-4.51-.78-8.98-6.43-8.84,3.27-4.5-1.4-5.72,1.14-8.39-.31-2.89-1.18-6.42-7.52-11.04-4.58-15.56,4.49-22.3,9.13-2.54-1.48-3.59,1.63c-1.58-1.09-4.18-2.6-6.55-2.7-2.68-.09-4.36,1.7-5.28,3.13l-2.43-.5-2.63,2.3-13.88-13.05-2.96,2.71-5.26-2.36-8.67,9.7c-2.9,1.15-14.98,5.94-22.03,8.52-7.63,2.79-46.26,13.5-50.7,14.73l-.96.27,1.22,4.42.96-.27c.43-.12,42.8-11.82,51.05-14.84,8.12-2.97,22.52-8.71,22.66-8.77l.5-.2,7.16-8,4.95,2.22,2.04-1.87,13.81,12.98,4.04-3.54,3.85.79.67-1.86c.23-.61.98-1.93,1.7-1.93h.01c1.34.05,3.74,1.52,5.01,2.54l1.1.88,3.94-1.79,2.45,1.43,24.05-9.86,13.9-4.01,8.54,3.54,6.42,7.53,4.68,1.91,9.74.36,5.1-1.02,4.87,1.52,8.03-2.97,7.86,5.62,6.56,1.13,18.58-5.12,13.42,6.39,6.33,1.15,8.42,5.84,18.32,8.76h.52c.14,0,13.57.02,19.01,1.67,5.3,1.61,10.41,4.98,10.63,5.12l1.7,1.14,1.03-1.22c.61-.17,2.87-.61,9.08-.07,8.12.71,10.47,2.56,10.49,2.58l.46.38.73-.29,2.72-2.62-.69-.72Z"/>
  <g>
    <path class="st0" d="M406.33,31.87c-6.27,0-11.83,3.1-15.23,7.84-3.4-4.74-8.96-7.84-15.23-7.84s-11.83,3.1-15.23,7.84c-1.76-2.45-4.1-4.46-6.81-5.83.71-.79,1.63-1.7,2.68-2.56,1.29-1.04,1.67-2.85.91-4.33-1.34-2.6-1.52-6.14-1.39-8.66,2.28-.12,5.66-.02,8.37,1.24.94.44,2.03.44,2.98,0,.94-.44,1.64-1.28,1.9-2.29,1.02-3.91,4.38-7.36,6.58-9.27,2.2,1.92,5.57,5.38,6.58,9.27.26,1.01.96,1.85,1.91,2.29.94.44,2.03.44,2.98,0,4.47-2.09,10.78-1,10.92-.97,1.9.35,3.73-.91,4.08-2.81.35-1.91-.9-3.74-2.81-4.09-.29-.05-5.95-1.07-11.61.29-3.25-6.63-9.74-11.14-10.06-11.36-1.2-.82-2.78-.82-3.98,0-.32.22-6.8,4.73-10.06,11.36-5.66-1.37-11.32-.35-11.61-.29-1.43.27-2.55,1.38-2.81,2.81-.06.32-1.26,7,.72,13.12-2.1,2.03-3.44,3.9-3.71,4.28-.33-.02-.66-.03-1-.03-10.33,0-18.74,8.4-18.74,18.74,0,9.71,7.43,17.72,16.91,18.65-1.07,2.36-1.68,4.98-1.68,7.73,0,9.72,7.45,17.74,16.93,18.65-1.09,2.38-1.71,5.02-1.71,7.8,0,1.94,1.57,3.51,3.51,3.51s3.51-1.57,3.51-3.51c0-6.46,5.26-11.72,11.72-11.72s11.72,5.26,11.72,11.72-5.26,11.72-11.72,11.72c-1.94,0-3.51,1.57-3.51,3.51s1.57,3.51,3.51,3.51c10.33,0,18.74-8.41,18.74-18.74,0-2.78-.61-5.42-1.7-7.8,9.49-.91,16.93-8.93,16.93-18.65,0-2.89-.66-5.62-1.83-8.07,1.09-.6,1.83-1.75,1.83-3.08,0-1.94-1.57-3.51-3.51-3.51-6.46,0-11.72-5.26-11.72-11.72s5.26-11.72,11.72-11.72,11.72,5.26,11.72,11.72c0,1.94,1.57,3.51,3.51,3.51s3.51-1.57,3.51-3.51c0-10.33-8.4-18.74-18.74-18.74M375.88,38.89c6.46,0,11.72,5.26,11.72,11.72s-5.26,11.72-11.72,11.72-11.72-5.26-11.72-11.72,5.26-11.72,11.72-11.72M333.7,50.61c0-6.46,5.26-11.72,11.72-11.72s11.72,5.26,11.72,11.72-5.26,11.72-11.72,11.72-11.72-5.26-11.72-11.72M348.93,76.99c0-6.46,5.26-11.72,11.72-11.72s11.72,5.26,11.72,11.72-5.26,11.72-11.72,11.72-11.72-5.26-11.72-11.72M391.11,88.71c-6.46,0-11.72-5.26-11.72-11.72s5.26-11.72,11.72-11.72,11.72,5.26,11.72,11.72-5.26,11.72-11.72,11.72"/>
    <g>
      <path class="st0" d="M38.28,146.74c0,11.33-8.29,20.07-19.11,20.07S0,158.22,0,146.74s8.52-19.92,19.03-19.92c5.33,0,10.07,2.52,13.18,6.44v-22.44h6.07v35.91ZM19.18,132.6c-7.11,0-12.89,6.22-12.89,14.14s5.78,14.29,12.89,14.29,12.89-6.37,12.89-14.29-5.85-14.14-12.89-14.14"/>
      <path class="st0" d="M82.19,154.07c-2.96,8.15-9.33,12.74-18.14,12.74-10.96,0-19.55-8.74-19.55-19.92s8.59-20.07,19.18-20.07c8.29,0,16.37,5.78,18.59,15.7l-29.25,12.37c2.44,3.85,6.66,6,11.03,6,5.41,0,9.18-2.37,11.63-6.81h6.52ZM51.01,149.41l23.55-9.92c-2.37-4.15-6.59-6.74-10.89-6.74-6.07,0-12.89,5.33-12.89,14.07,0,.96.07,1.78.22,2.59"/>
      <path class="st0" d="M112.54,133.93c-2.96-.07-5.63.3-7.63,2.15-1.7,1.7-2.89,4.15-2.89,10.74,0,7.55-1.33,11.92-4.74,15.18-2.96,2.81-7.26,4.22-12,3.92v-6.22c3.33.15,6.07-.74,7.7-2.3,1.63-1.55,2.81-4,2.81-10.59,0-7.55,1.33-12,4.74-15.25,2.89-2.74,7.03-4.07,12-3.78v6.15Z"/>
      <path class="st0" d="M153.79,165.92h-6.07v-5.92c-2.96,4.15-7.78,6.89-13.18,6.89-10.52,0-19.03-8.59-19.03-19.99s8.59-20.07,19.18-20.07,19.11,8.81,19.11,20.07v19.03ZM134.68,132.6c-7.11,0-12.89,6.29-12.89,14.29s5.78,14.14,12.89,14.14,12.89-6.29,12.89-14.14-5.92-14.29-12.89-14.29"/>
      <path class="st0" d="M194.14,127.78v40.95c0,10-6.96,15.92-15.92,15.92-1.69-1.3-1.37-5.89,0-6.07,5.85,0,9.63-4,9.63-9.85v-5.7c-2.3,2.44-5.48,3.78-9.63,3.78-8.96,0-15.92-6.3-15.92-15.92v-23.1h6.22v23.1c0,5.7,3.78,9.85,9.7,9.85s9.63-4.15,9.63-9.85v-23.1h6.29Z"/>
      <path class="st0" d="M229.75,127.78h6.3v23.1c0,9.63-6.96,15.92-15.92,15.92s-15.92-6.3-15.92-15.92v-23.1h6.22v23.1c0,5.7,3.78,9.85,9.7,9.85s9.63-4.15,9.63-9.85v-23.1Z"/>
      <path class="st0" d="M251.44,165.92h-6.22v-23.18c0-9.63,6.81-15.92,15.92-15.92s15.85,6.29,15.85,15.92v23.18h-6.22v-23.4c0-5.7-3.78-9.85-9.63-9.85s-9.7,4.15-9.7,9.85v23.4Z"/>
      <path class="st0" d="M322.82,146.96c0,10.96-8.29,19.92-19.18,19.92s-19.18-8.96-19.18-19.92,8.37-20.14,19.18-20.14,19.18,9.03,19.18,20.14M316.53,146.96c0-7.78-5.78-14.14-12.88-14.14s-12.81,6.37-12.81,14.14,5.77,13.85,12.81,13.85,12.88-6.22,12.88-13.85"/>
      <path class="st0" d="M409.78,153.98c-2.95,8.12-9.3,12.7-18.08,12.7-10.92,0-19.49-8.71-19.49-19.86s8.56-20,19.12-20c8.27,0,16.31,5.76,18.53,15.65l-29.16,12.33c2.44,3.84,6.64,5.98,11,5.98,5.39,0,9.15-2.36,11.59-6.79h6.5ZM378.7,149.33l23.47-9.89c-2.36-4.13-6.57-6.72-10.85-6.72-6.05,0-12.84,5.31-12.84,14.03,0,.96.07,1.77.22,2.58"/>
      <path class="st0" d="M453.25,165.78h-6.05v-5.9c-2.95,4.13-7.75,6.86-13.14,6.86-10.48,0-18.97-8.56-18.97-19.93s8.56-20,19.12-20,19.04,8.78,19.04,20v18.97ZM434.2,132.57c-7.09,0-12.84,6.27-12.84,14.25s5.76,14.1,12.84,14.1,12.84-6.27,12.84-14.1-5.91-14.25-12.84-14.25"/>
      <path class="st0" d="M464.55,110.87h.86c1.48,0,2.67,1.2,2.67,2.67v38.15c0,6.72,4.13,8.41,8.86,8.19v5.9c-8.93,1.03-15.06-4.21-15.06-13.88v-38.37c0-1.48,1.2-2.67,2.67-2.67Z"/>
      <path class="st0" d="M365.21,151.84v14.08h-6.23v-13.64c0-2.93-1.76-5.28-5.5-5.28h-16.57v18.92h-6.23v-34.18c0-10.41,7.48-17.97,17.75-17.97s17.82,7.33,17.82,16.5c0,5.79-2.2,10.12-6.09,12.76,3.23,1.76,5.06,4.77,5.06,8.8M360,130.28c0-5.79-4.77-10.56-11.59-10.56s-11.51,4.77-11.51,12.03v9.24h11.95c7.48,0,11.15-4.4,11.15-10.71"/>
    </g>
  </g>
</svg>