<?xml version="1.0" encoding="utf-8"?>
<!-- Generator: Adobe Illustrator 25.4.1, SVG Export Plug-In . SVG Version: 6.00 Build 0)  -->
<svg version="1.1" id="Capa_1" xmlns="http://www.w3.org/2000/svg" xmlns:xlink="http://www.w3.org/1999/xlink" x="0px" y="0px"
	 viewBox="0 0 108.9 135.22" style="enable-background:new 0 0 108.9 135.22;" xml:space="preserve">
<style type="text/css">
	.st0{fill:url(#SVGID_1_);}
	.st1{fill:#37171B;}
	.st2{fill:#B68400;}
	.st3{fill:#F3EFA1;}
	.st4{fill:#A5BAC9;}
	.st5{fill:#F4D3D6;}
	.st6{fill:#53284F;}
	.st7{fill:#CFDDBB;}
	.st8{fill:#FFFFFF;}
	.st9{fill:#1D1D1B;}
	.st10{fill:#D2DCBB;}
	.st11{fill:none;stroke:#F4D3D6;stroke-width:3;stroke-miterlimit:10;}
	.st12{fill:#EAD2D5;stroke:#A88318;stroke-width:0.8989;stroke-miterlimit:10;}
	.st13{fill:#FFFFFF;stroke:#A88318;stroke-width:0.8989;stroke-miterlimit:10;}
	.st14{fill:url(#SVGID_00000166676605731020858740000008578785968789834932_);}
	.st15{fill:none;stroke:#37171B;stroke-width:2;stroke-miterlimit:10;}
	.st16{fill:url(#SVGID_00000182492558636602109720000004651610597185072268_);}
	.st17{fill:#F4D3D6;stroke:#B68400;stroke-width:0.5397;stroke-miterlimit:10;}
	.st18{fill:url(#SVGID_00000086686896356398903970000000894746810679029145_);}
	.st19{fill:url(#SVGID_00000035522824890648722630000001421023398680275882_);}
</style>
<path class="st1" d="M88.16,35.27c-6.94,0-13.09,3.43-16.85,8.68c-3.77-5.25-9.92-8.68-16.86-8.68c-6.94,0-13.09,3.43-16.85,8.68
	c-1.95-2.71-4.53-4.94-7.54-6.46c0.79-0.87,1.8-1.89,2.97-2.84c1.43-1.16,1.85-3.15,1.01-4.79c-1.48-2.88-1.68-6.79-1.54-9.59
	c2.52-0.14,6.26-0.03,9.26,1.38c1.04,0.49,2.25,0.49,3.3,0c1.04-0.49,1.82-1.42,2.11-2.54c1.13-4.33,4.85-8.15,7.28-10.26
	c2.43,2.13,6.16,5.96,7.29,10.26c0.29,1.12,1.06,2.04,2.11,2.54c1.04,0.49,2.25,0.49,3.29,0c4.95-2.31,11.93-1.11,12.08-1.08
	c2.11,0.39,4.13-1,4.52-3.11c0.39-2.11-1-4.14-3.11-4.53c-0.32-0.06-6.59-1.19-12.85,0.33C64.18,5.92,57,0.92,56.65,0.68
	c-1.33-0.91-3.07-0.91-4.4,0c-0.35,0.24-7.53,5.24-11.13,12.57c-6.26-1.51-12.53-0.38-12.85-0.33c-1.58,0.3-2.82,1.53-3.11,3.11
	c-0.07,0.36-1.39,7.75,0.8,14.52c-2.32,2.25-3.81,4.31-4.11,4.74c-0.37-0.02-0.73-0.03-1.1-0.03C9.3,35.27,0,44.57,0,56.01
	c0,10.75,8.22,19.62,18.71,20.64c-1.19,2.61-1.86,5.51-1.86,8.56c0,10.76,8.24,19.63,18.74,20.64c-1.21,2.63-1.89,5.55-1.89,8.63
	c0,2.14,1.74,3.88,3.89,3.88c2.14,0,3.89-1.74,3.89-3.88c0-7.15,5.82-12.97,12.97-12.97c7.15,0,12.97,5.82,12.97,12.97
	s-5.82,12.97-12.97,12.97c-2.14,0-3.89,1.74-3.89,3.88c0,2.15,1.74,3.89,3.89,3.89c11.44,0,20.74-9.3,20.74-20.74
	c0-3.08-0.68-6-1.89-8.63c10.5-1.01,18.74-9.88,18.74-20.64c0-3.19-0.73-6.22-2.03-8.93c1.21-0.66,2.03-1.94,2.03-3.41
	c0-2.15-1.74-3.88-3.89-3.88c-7.15,0-12.97-5.82-12.97-12.97s5.82-12.97,12.97-12.97s12.97,5.82,12.97,12.97
	c0,2.14,1.74,3.88,3.89,3.88c2.14,0,3.88-1.74,3.88-3.88C108.9,44.57,99.6,35.27,88.16,35.27 M54.45,43.04
	c7.15,0,12.97,5.82,12.97,12.97S61.6,68.98,54.45,68.98c-7.15,0-12.97-5.82-12.97-12.97S47.3,43.04,54.45,43.04 M7.77,56.01
	c0-7.15,5.82-12.97,12.97-12.97c7.15,0,12.97,5.82,12.97,12.97s-5.82,12.97-12.97,12.97C13.59,68.98,7.77,63.16,7.77,56.01
	 M24.62,85.21c0-7.15,5.82-12.97,12.97-12.97s12.97,5.82,12.97,12.97c0,7.15-5.82,12.97-12.97,12.97S24.62,92.36,24.62,85.21
	 M71.31,98.18c-7.15,0-12.97-5.82-12.97-12.97c0-7.15,5.82-12.97,12.97-12.97c7.15,0,12.97,5.82,12.97,12.97
	C84.28,92.36,78.46,98.18,71.31,98.18"/>
</svg>
